<svg width="37" height="37" viewBox="0 0 37 37" fill="none" xmlns="http://www.w3.org/2000/svg">
<rect x="0.5" y="0.5" width="36" height="36" rx="4.5" fill="#0F0F15" stroke="#EF7F1A"/>
<path fill-rule="evenodd" clip-rule="evenodd" d="M17.5961 26.3074H19.0314C19.0314 26.3074 19.465 26.2598 19.6863 26.0212C19.8901 25.8021 19.8835 25.3907 19.8835 25.3907C19.8835 25.3907 19.8555 23.4648 20.7493 23.1812C21.6305 22.9019 22.7619 25.0426 23.9612 25.8657C24.8681 26.4886 25.5572 26.3521 25.5572 26.3521L28.7639 26.3074C28.7639 26.3074 30.4414 26.2041 29.646 24.8851C29.5808 24.7772 29.1828 23.9095 27.2618 22.1264C25.2511 20.2601 25.5204 20.562 27.9424 17.3338C29.4175 15.3678 30.0072 14.1675 29.823 13.6535C29.6473 13.1639 28.5625 13.2933 28.5625 13.2933L24.9519 13.3158C24.9519 13.3158 24.6843 13.2793 24.4857 13.3979C24.2918 13.5143 24.1669 13.7855 24.1669 13.7855C24.1669 13.7855 23.5955 15.3069 22.8333 16.6007C21.2256 19.3308 20.5828 19.4748 20.32 19.3053C19.7088 18.9102 19.8614 17.7181 19.8614 16.8712C19.8614 14.2256 20.2627 13.1225 19.08 12.8369C18.6875 12.742 18.3987 12.6794 17.395 12.6693C16.1067 12.656 15.0163 12.6733 14.3989 12.9758C13.9882 13.1769 13.6713 13.6251 13.8643 13.6509C14.1029 13.6828 14.6434 13.7966 14.9299 14.1868C15.2999 14.6901 15.2869 15.8206 15.2869 15.8206C15.2869 15.8206 15.4994 18.935 14.7904 19.322C14.3037 19.5873 13.6361 19.0455 12.2028 16.5687C11.4683 15.3 10.9139 13.8976 10.9139 13.8976C10.9139 13.8976 10.8069 13.6355 10.6162 13.4954C10.3848 13.3255 10.0614 13.2714 10.0614 13.2714L6.63047 13.2939C6.63047 13.2939 6.11542 13.3083 5.92635 13.5322C5.75814 13.7314 5.91298 14.1434 5.91298 14.1434C5.91298 14.1434 8.59906 20.4277 11.6405 23.5946C14.4292 26.4981 17.5961 26.3074 17.5961 26.3074Z" fill="#EF7F1A"/>
</svg>
