<svg width="35" height="35" viewBox="0 0 35 35" fill="none" xmlns="http://www.w3.org/2000/svg">
<circle cx="18" cy="17" r="15" fill="#09090D"/>
<path d="M22.8575 9.20441H12.546C10.9002 9.20441 9.56116 10.5434 9.56116 12.1893V22.5007C9.56116 24.1466 10.9002 25.486 12.546 25.486H22.8575C24.5033 25.486 25.8427 24.147 25.8427 22.5007V12.1893C25.8427 10.5434 24.5037 9.20441 22.8575 9.20441ZM17.7018 22.705C14.7465 22.705 12.3421 20.3006 12.3421 17.345C12.3421 14.3898 14.7465 11.9854 17.7018 11.9854C20.6573 11.9854 23.0618 14.3898 23.0618 17.345C23.0618 20.3002 20.657 22.705 17.7018 22.705ZM23.234 13.0935C22.5345 13.0935 21.9655 12.5246 21.9655 11.8254C21.9655 11.1262 22.5345 10.5573 23.234 10.5573C23.9332 10.5573 24.5022 11.1262 24.5022 11.8254C24.5022 12.5246 23.9332 13.0935 23.234 13.0935Z" fill="#EF7F1A"/>
<path d="M17.7017 14.2503C15.9957 14.2503 14.6066 15.6387 14.6066 17.3447C14.6066 19.0514 15.9957 20.4402 17.7017 20.4402C19.4084 20.4402 20.7964 19.0514 20.7964 17.3447C20.7964 15.6391 19.4081 14.2503 17.7017 14.2503Z" fill="#EF7F1A"/>
<path d="M17.7017 0C8.14845 0 0.40332 7.74513 0.40332 17.2984C0.40332 26.8516 8.14845 34.5968 17.7017 34.5968C27.255 34.5968 35.0001 26.8516 35.0001 17.2984C35.0001 7.74513 27.255 0 17.7017 0ZM28.1072 22.5007C28.1072 25.3958 25.7525 27.7505 22.8574 27.7505H12.546C9.6513 27.7505 7.29623 25.3958 7.29623 22.5007V12.1893C7.29623 9.29462 9.6513 6.93955 12.546 6.93955H22.8574C25.7525 6.93955 28.1072 9.29462 28.1072 12.1893V22.5007Z" fill="#EF7F1A"/>
</svg>
