<svg width="38" height="37" viewBox="0 0 38 37" fill="none" xmlns="http://www.w3.org/2000/svg">
<rect x="1.12845" y="0.5" width="36" height="36" rx="4.5" fill="#0F0F15" stroke="#EF7F1A"/>
<path d="M24.3659 9.73022H13.4653C11.7254 9.73022 10.3098 11.1458 10.3098 12.8857V23.7863C10.3098 25.5262 11.7254 26.9422 13.4653 26.9422H24.3659C26.1058 26.9422 27.5218 25.5266 27.5218 23.7863V12.8857C27.5218 11.1458 26.1063 9.73022 24.3659 9.73022ZM18.9156 24.0023C15.7915 24.0023 13.2497 21.4605 13.2497 18.336C13.2497 15.2119 15.7915 12.6701 18.9156 12.6701C22.0401 12.6701 24.5819 15.2119 24.5819 18.336C24.5819 21.4601 22.0397 24.0023 18.9156 24.0023ZM24.764 13.8416C24.0245 13.8416 23.4231 13.2402 23.4231 12.501C23.4231 11.7619 24.0245 11.1604 24.764 11.1604C25.5032 11.1604 26.1046 11.7619 26.1046 12.501C26.1046 13.2402 25.5032 13.8416 24.764 13.8416Z" fill="#EF7F1A"/>
<path d="M18.9155 15.0645C17.112 15.0645 15.6435 16.5322 15.6435 18.3357C15.6435 20.14 17.112 21.6081 18.9155 21.6081C20.7198 21.6081 22.1871 20.14 22.1871 18.3357C22.1871 16.5326 20.7194 15.0645 18.9155 15.0645Z" fill="#EF7F1A"/>
</svg>
