<svg width="39" height="50" viewBox="0 0 39 50" fill="none" xmlns="http://www.w3.org/2000/svg">
<path d="M19.0254 0C8.53508 0 0 8.53508 0 19.0254C0 23.1768 1.31129 27.1214 3.79532 30.4309L17.8526 49.3637C17.8878 49.4095 17.9414 49.4271 17.9805 49.4681C18.6829 50.2203 19.6966 50.031 20.1972 49.3637C24.2452 43.9624 31.6651 33.875 34.5179 30.0699C34.5179 30.0699 34.5189 30.0669 34.5199 30.065L34.5374 30.0416C36.8361 26.8121 38.0508 23.0032 38.0508 19.0254C38.0508 8.53508 29.5157 0 19.0254 0ZM19.0254 29.2893C13.3773 29.2893 8.76144 24.6735 8.76144 19.0254C8.76144 13.3773 13.3773 8.76144 19.0254 8.76144C24.6735 8.76144 29.2893 13.3773 29.2893 19.0254C29.2893 24.6735 24.6735 29.2893 19.0254 29.2893Z" fill="white"/>
</svg>
