<svg width="25" height="20" viewBox="0 0 25 20" fill="none" xmlns="http://www.w3.org/2000/svg">
<path d="M0.801514 13.0378C0.801514 10.4409 1.44402 8.04171 2.72902 5.84006C4.01403 3.58196 5.63425 1.74725 7.58969 0.335938L10.6905 2.8763C9.34959 3.77954 8.14839 4.99327 7.08687 6.51749C6.02534 7.98526 5.43871 9.39657 5.32697 10.7514C5.38284 10.7514 5.52251 10.7514 5.74599 10.7514C5.96947 10.695 6.19295 10.6668 6.41643 10.6668C7.58969 10.6668 8.53948 11.0619 9.26579 11.8523C10.048 12.6426 10.4391 13.687 10.4391 14.9854C10.4391 16.2273 10.02 17.2999 9.18198 18.2032C8.34394 19.0499 7.28241 19.4733 5.99741 19.4733C4.60066 19.4733 3.37153 18.937 2.31 17.8644C1.30434 16.7354 0.801514 15.1265 0.801514 13.0378ZM14.2103 13.0378C14.2103 10.4409 14.8528 8.04171 16.1378 5.84006C17.4228 3.58196 19.043 1.74725 20.9984 0.335938L24.0992 2.8763C22.7583 3.77954 21.5571 4.99327 20.4956 6.51749C19.49 7.98526 18.9033 9.39657 18.7357 10.7514C18.7916 10.7514 18.9313 10.7514 19.1547 10.7514C19.3782 10.695 19.6017 10.6668 19.8252 10.6668C20.9984 10.6668 21.9762 11.0619 22.7583 11.8523C23.5405 12.6426 23.9316 13.687 23.9316 14.9854C23.9316 16.2273 23.4847 17.2999 22.5907 18.2032C21.7527 19.0499 20.6912 19.4733 19.4062 19.4733C18.0094 19.4733 16.7803 18.937 15.7188 17.8644C14.7131 16.7354 14.2103 15.1265 14.2103 13.0378Z" fill="#3C3C3C"/>
</svg>
