<svg width="35" height="35" viewBox="0 0 35 35" fill="none" xmlns="http://www.w3.org/2000/svg">
<circle cx="17.5967" cy="17" r="15" fill="#09090D"/>
<path d="M22.4541 9.20435H12.1427C10.4969 9.20435 9.15784 10.5434 9.15784 12.1892V22.5007C9.15784 24.1465 10.4969 25.4859 12.1427 25.4859H22.4541C24.1 25.4859 25.4394 24.1469 25.4394 22.5007V12.1892C25.4394 10.5434 24.1004 9.20435 22.4541 9.20435ZM17.2984 22.7049C14.3432 22.7049 11.9388 20.3005 11.9388 17.3449C11.9388 14.3897 14.3432 11.9853 17.2984 11.9853C20.254 11.9853 22.6584 14.3897 22.6584 17.3449C22.6584 20.3002 20.2536 22.7049 17.2984 22.7049ZM22.8307 13.0935C22.1311 13.0935 21.5622 12.5246 21.5622 11.8254C21.5622 11.1262 22.1311 10.5573 22.8307 10.5573C23.5299 10.5573 24.0988 11.1262 24.0988 11.8254C24.0988 12.5246 23.5299 13.0935 22.8307 13.0935Z" fill="#929292"/>
<path d="M17.2984 14.2502C15.5924 14.2502 14.2032 15.6386 14.2032 17.3446C14.2032 19.0513 15.5924 20.4401 17.2984 20.4401C19.0051 20.4401 20.3931 19.0513 20.3931 17.3446C20.3931 15.639 19.0047 14.2502 17.2984 14.2502Z" fill="#929292"/>
<path d="M17.2984 0C7.74513 0 0 7.74513 0 17.2984C0 26.8516 7.74513 34.5968 17.2984 34.5968C26.8516 34.5968 34.5968 26.8516 34.5968 17.2984C34.5968 7.74513 26.8516 0 17.2984 0ZM27.7039 22.5007C27.7039 25.3958 25.3492 27.7505 22.4541 27.7505H12.1427C9.24798 27.7505 6.89291 25.3958 6.89291 22.5007V12.1893C6.89291 9.29462 9.24798 6.93955 12.1427 6.93955H22.4541C25.3492 6.93955 27.7039 9.29462 27.7039 12.1893V22.5007Z" fill="#929292"/>
</svg>
