<svg width="19" height="19" viewBox="0 0 19 19" fill="none" xmlns="http://www.w3.org/2000/svg">
<path d="M17.7153 13.7434C17.2378 12.9567 15.9778 12.6096 15.2691 12.4726C13.9758 12.2227 12.3091 12.2417 11.5012 12.8476C11.2353 13.0472 11.1028 13.4596 11.0719 14.1849C11.0678 14.2805 11.066 14.3738 11.0655 14.4622C9.69284 13.9321 8.42574 13.1412 7.34429 12.1394L6.86937 11.6672C5.86333 10.5933 5.0687 9.33512 4.53582 7.97245C4.62492 7.97201 4.71899 7.9702 4.81534 7.96616C5.54323 7.93542 5.95715 7.80394 6.15746 7.53991C6.7642 6.74017 6.78617 5.08886 6.5388 3.80715C6.40167 3.09636 6.05268 1.83272 5.25689 1.35512C4.46519 0.879966 3.24154 0.99459 2.75216 1.066C1.74256 1.21317 0.902627 1.5699 0.505266 2.02012C0.159007 2.41251 0.0373677 3.5323 0.00117311 3.99548C0.00019883 4.00765 -0.000142296 4.02017 5.25603e-05 4.0324C0.0596299 7.80516 1.51092 11.4078 4.08648 14.1754C4.08994 14.179 4.09345 14.1842 4.097 14.1877L4.81905 14.9087C4.8226 14.9123 4.82621 14.9219 4.82996 14.9253C7.61265 17.4858 11.2339 18.9026 15.0266 19C15.0286 19 15.0307 19 15.0327 19C15.0427 19 15.0528 18.9874 15.0628 18.9867C15.528 18.9507 16.6526 18.8177 17.0465 18.4741C17.4996 18.0787 17.8586 17.2427 18.0068 16.2378C18.0786 15.7505 18.194 14.532 17.7153 13.7434ZM17.2357 16.124C17.1192 16.9138 16.8372 17.6222 16.5344 17.8864C16.3986 17.9983 15.6942 18.142 15.0206 18.196C11.4285 18.1354 7.99973 16.7682 5.36328 14.3445L4.65205 13.6373C2.21528 11.0163 0.840712 7.60826 0.779819 4.03766C0.833648 3.36955 0.977744 2.6705 1.08984 2.53566C1.35625 2.23383 2.06952 1.95314 2.86478 1.8372C3.69891 1.71556 4.46197 1.78688 4.85597 2.02338C5.23614 2.25156 5.5878 2.99162 5.77369 3.95485C6.01765 5.21898 5.91896 6.54761 5.54489 7.05794C5.39382 7.16404 4.7089 7.22088 4.06646 7.18245C3.9967 7.16486 3.92134 7.16603 3.84803 7.19049C3.78402 7.21187 3.72926 7.24831 3.6863 7.29449C3.62438 7.35806 3.58366 7.44292 3.57674 7.5384C3.5708 7.62068 3.59101 7.69872 3.63013 7.76473C4.16891 9.33975 5.03081 10.7984 6.15186 12.0384C6.16511 12.0596 6.1806 12.0798 6.19834 12.0987C6.31384 12.2218 6.43187 12.3426 6.55215 12.4608C6.67125 12.5807 6.79284 12.6982 6.91702 12.8133C6.93606 12.8309 6.95638 12.8463 6.97762 12.8594C8.22421 13.9737 9.6907 14.8307 11.2739 15.3662C11.3398 15.4051 11.4178 15.4253 11.5 15.4191C11.5962 15.4121 11.6814 15.3707 11.7451 15.3079C11.7516 15.3018 11.7574 15.2951 11.7636 15.2885C11.7652 15.2866 11.7669 15.2847 11.7686 15.2827C11.803 15.2441 11.831 15.1989 11.8482 15.1468C11.8725 15.0735 11.8734 14.9984 11.8557 14.9289C11.8174 14.2917 11.8741 13.613 11.9802 13.463C12.4977 13.0879 13.8426 12.9908 15.1214 13.238C16.0825 13.4237 16.8213 13.7723 17.0492 14.1478C17.2863 14.5386 17.3578 15.2959 17.2357 16.124Z" fill="#EF7F1A"/>
<mask id="path-2-inside-1" fill="white">
<path d="M10.4328 0.8655C14.494 0.870014 17.7852 4.16126 17.7898 8.22255C17.7898 8.46157 17.9835 8.6553 18.2226 8.6553C18.4616 8.6553 18.6553 8.46157 18.6553 8.22255C18.6503 3.68342 14.9719 0.00497006 10.4328 0C10.1937 0 10 0.193731 10 0.43275C10 0.671769 10.1937 0.8655 10.4328 0.8655Z"/>
</mask>
<path d="M10.4328 0.8655C14.494 0.870014 17.7852 4.16126 17.7898 8.22255C17.7898 8.46157 17.9835 8.6553 18.2226 8.6553C18.4616 8.6553 18.6553 8.46157 18.6553 8.22255C18.6503 3.68342 14.9719 0.00497006 10.4328 0C10.1937 0 10 0.193731 10 0.43275C10 0.671769 10.1937 0.8655 10.4328 0.8655Z" fill="#EF7F1A"/>
<path d="M10.4328 0.8655L10.4361 -2.1345H10.4328V0.8655ZM17.7898 8.22255H20.7898L20.7898 8.21918L17.7898 8.22255ZM18.6553 8.22255H21.6553L21.6553 8.21924L18.6553 8.22255ZM10.4328 0L10.436 -3H10.4328V0ZM10.4294 3.8655C12.8364 3.86817 14.7871 5.81881 14.7898 8.22593L20.7898 8.21918C20.7834 2.5037 16.1517 -2.12815 10.4361 -2.1345L10.4294 3.8655ZM14.7898 8.22255C14.7898 10.1184 16.3267 11.6553 18.2226 11.6553V5.6553C19.6404 5.6553 20.7898 6.80473 20.7898 8.22255H14.7898ZM18.2226 11.6553C20.1184 11.6553 21.6553 10.1184 21.6553 8.22255H15.6553C15.6553 6.80472 16.8047 5.6553 18.2226 5.6553V11.6553ZM21.6553 8.21924C21.6485 2.02587 16.6295 -2.99322 10.436 -3L10.4295 3C13.3143 3.00316 15.6521 5.34097 15.6553 8.22587L21.6553 8.21924ZM10.4328 -3C8.53688 -3 7 -1.46313 7 0.43275H13C13 1.85059 11.8506 3 10.4328 3V-3ZM7 0.43275C7 2.32863 8.53689 3.8655 10.4328 3.8655V-2.1345C11.8506 -2.1345 13 -0.985095 13 0.43275H7Z" fill="#EF7F1A" mask="url(#path-2-inside-1)"/>
<mask id="path-4-inside-2" fill="white">
<path d="M10.4328 3.46218C13.0606 3.46527 15.1901 5.59479 15.1932 8.22263C15.1932 8.46165 15.387 8.65538 15.626 8.65538C15.865 8.65538 16.0587 8.46165 16.0587 8.22263C16.0551 5.11695 13.5384 2.60023 10.4328 2.59668C10.1937 2.59668 10 2.79041 10 3.02943C10 3.26845 10.1937 3.46218 10.4328 3.46218Z"/>
</mask>
<path d="M10.4328 3.46218C13.0606 3.46527 15.1901 5.59479 15.1932 8.22263C15.1932 8.46165 15.387 8.65538 15.626 8.65538C15.865 8.65538 16.0587 8.46165 16.0587 8.22263C16.0551 5.11695 13.5384 2.60023 10.4328 2.59668C10.1937 2.59668 10 2.79041 10 3.02943C10 3.26845 10.1937 3.46218 10.4328 3.46218Z" fill="#EF7F1A"/>
<path d="M10.4328 3.46218L10.4363 0.462179H10.4328V3.46218ZM15.1932 8.22263H18.1932L18.1932 8.2191L15.1932 8.22263ZM16.0587 8.22263H19.0587L19.0587 8.21915L16.0587 8.22263ZM10.4328 2.59668L10.4362 -0.40332H10.4328V2.59668ZM10.4292 6.46218C11.403 6.46332 12.1921 7.25242 12.1932 8.22616L18.1932 8.2191C18.1882 3.93716 14.7182 0.467222 10.4363 0.462181L10.4292 6.46218ZM12.1932 8.22263C12.1932 10.1187 13.7304 11.6554 15.626 11.6554V5.65538C17.0436 5.65538 18.1932 6.80457 18.1932 8.22263H12.1932ZM15.626 11.6554C17.5218 11.6554 19.0587 10.1185 19.0587 8.22263H13.0587C13.0587 6.8048 14.2081 5.65538 15.626 5.65538V11.6554ZM19.0587 8.21915C19.0532 3.45937 15.196 -0.397877 10.4362 -0.403318L10.4293 5.59668C11.8807 5.59834 13.057 6.77454 13.0587 8.22611L19.0587 8.21915ZM10.4328 -0.40332C8.53688 -0.40332 7 1.13355 7 3.02943H13C13 4.44727 11.8506 5.59668 10.4328 5.59668V-0.40332ZM7 3.02943C7 4.92532 8.53689 6.46218 10.4328 6.46218V0.462179C11.8506 0.462179 13 1.61158 13 3.02943H7Z" fill="#EF7F1A" mask="url(#path-4-inside-2)"/>
<mask id="path-6-inside-3" fill="white">
<path d="M10.4328 6.05861C11.6272 6.06003 12.5951 7.02798 12.5966 8.22247C12.5966 8.46149 12.7904 8.65522 13.0294 8.65522C13.2683 8.65522 13.4621 8.46149 13.4621 8.22247C13.4602 6.55019 12.105 5.19499 10.4328 5.19312C10.1937 5.19312 10 5.38685 10 5.62587C10 5.86488 10.1937 6.05861 10.4328 6.05861Z"/>
</mask>
<path d="M10.4328 6.05861C11.6272 6.06003 12.5951 7.02798 12.5966 8.22247C12.5966 8.46149 12.7904 8.65522 13.0294 8.65522C13.2683 8.65522 13.4621 8.46149 13.4621 8.22247C13.4602 6.55019 12.105 5.19499 10.4328 5.19312C10.1937 5.19312 10 5.38685 10 5.62587C10 5.86488 10.1937 6.05861 10.4328 6.05861Z" fill="#EF7F1A"/>
<path d="M10.4328 6.05861L10.4363 3.05861H10.4328V6.05861ZM12.5966 8.22247H15.5966L15.5966 8.21877L12.5966 8.22247ZM13.4621 8.22247H16.4621L16.4621 8.21901L13.4621 8.22247ZM10.4328 5.19312L10.4361 2.19312H10.4328V5.19312ZM10.4292 9.05861C9.96948 9.05807 9.59717 8.68557 9.5966 8.22616L15.5966 8.21877C15.5931 5.37039 13.2849 3.062 10.4363 3.05862L10.4292 9.05861ZM9.5966 8.22247C9.5966 10.1186 11.1338 11.6552 13.0294 11.6552V5.65522C14.447 5.65522 15.5966 6.80441 15.5966 8.22247H9.5966ZM13.0294 11.6552C14.9249 11.6552 16.4621 10.1186 16.4621 8.22247H10.4621C10.4621 6.8044 11.6117 5.65522 13.0294 5.65522V11.6552ZM16.4621 8.21901C16.4583 4.89267 13.7627 2.19685 10.4361 2.19312L10.4294 8.19311C10.4355 8.19312 10.4385 8.1937 10.4391 8.19383C10.4399 8.194 10.4405 8.19418 10.4412 8.19447C10.4429 8.19521 10.4473 8.19757 10.4525 8.2027C10.4576 8.20783 10.46 8.21227 10.4607 8.21405C10.461 8.21475 10.4612 8.21531 10.4614 8.21615C10.4615 8.21681 10.4621 8.21975 10.4621 8.22592L16.4621 8.21901ZM10.4328 2.19312C8.53688 2.19312 7 3.72998 7 5.62587H13C13 7.04371 11.8506 8.19312 10.4328 8.19312V2.19312ZM7 5.62587C7 7.52175 8.53689 9.05861 10.4328 9.05861V3.05861C11.8506 3.05861 13 4.20802 13 5.62587H7Z" fill="#EF7F1A" mask="url(#path-6-inside-3)"/>
</svg>
